<?xml version="1.0" encoding="UTF-8"?>
<!-- Created with Inkscape (http://www.inkscape.org/) -->
<svg id="svg1" width="3840" height="2160" version="1.1" viewBox="0 0 1016 571.5" xmlns="http://www.w3.org/2000/svg">
  <defs id="defs1">
    <linearGradient id="linearGradient2" x2="1016" y1="285.75" y2="285.75" gradientTransform="matrix(.5625 0 0 1.7778 0 -1016)" gradientUnits="userSpaceOnUse">
      <stop id="stop2" stop-color="#87ceeb" offset="0"/>
      <stop id="stop5" stop-color="#2e8b57" offset=".50147"/>
    </linearGradient>
  </defs>
  <g id="layer1" stroke-width="0">
    <rect id="rect1" transform="rotate(90)" y="-1016" width="571.5" height="1016" rx="0" ry="0" fill="url(#linearGradient2)"/>
    <path id="path1" d="m497.54 271.67a238.12 238.12 0 0 1-223.35 251.77 238.12 238.12 0 0 1-252.03-223.05 238.12 238.12 0 0 1 222.75-252.3 238.12 238.12 0 0 1 252.57 222.44" stroke-width="0"/>
    <path id="path1-3" d="m993.88 271.67a238.12 238.12 0 0 1-223.35 251.77 238.12 238.12 0 0 1-252.03-223.05 238.12 238.12 0 0 1 222.75-252.3 238.12 238.12 0 0 1 252.57 222.44" fill-opacity=".3" stroke-width="0"/>
  </g>
</svg>
